<svg xmlns="http://www.w3.org/2000/svg" viewBox="0 0 618.39 503.21"><defs><style>.cls-1{fill:#81858a;}.cls-2{fill:#d0d6db;}.cls-3{fill:#3e3d40;}</style></defs><g id="Layer_2" data-name="Layer 2"><g id="Ebene_1" data-name="Ebene 1"><polygon class="cls-1" points="387.59 493.07 230.8 493.07 239.77 425.61 379.9 425.61 387.59 493.07"/><path class="cls-2" d="M0,369.11v41.66a15.42,15.42,0,0,0,15.38,15.37H603a15.42,15.42,0,0,0,15.37-15.37V369.11Z"/><path class="cls-3" d="M603,0H15.38A15.42,15.42,0,0,0,0,15.38V369.11H618.39V15.38A15.42,15.42,0,0,0,603,0ZM596.6,348.6H21.79V20.51H596.6Z"/><polygon class="cls-2" points="230.8 493.07 387.59 493.07 415.17 499.59 203.22 499.75 230.8 493.07"/><polygon class="cls-1" points="413.73 503.21 204.66 503.21 203.28 499.75 415.17 499.59 413.73 503.21"/></g></g></svg>