<svg xmlns="http://www.w3.org/2000/svg" xmlns:xlink="http://www.w3.org/1999/xlink" viewBox="0 0 431.27 450.81"><defs><style>.cls-1{fill:#f7f7f8;}.cls-2{fill:#6d6d6d;opacity:0.4;}.cls-3{fill:#d8d9dd;}.cls-4{fill:#c2c3c9;}.cls-5{fill:#1b1c1c;opacity:0.2;}.cls-6{fill:#aeadb3;}.cls-7{fill:#9a999e;}.cls-8{opacity:0.7;fill:url(#linear-gradient);}.cls-9{fill:#edeef0;}</style><linearGradient id="linear-gradient" x1="204.51" y1="324.97" x2="247.81" y2="376.93" gradientTransform="translate(-44.04 215.31) rotate(-55.49)" gradientUnits="userSpaceOnUse"><stop offset="0" stop-color="#d5d5d5"/><stop offset="1" stop-color="#949494"/></linearGradient></defs><g id="Layer_2" data-name="Layer 2"><g id="Objects"><polygon class="cls-1" points="91.78 117.59 81.75 123.01 25.61 24.89 26.8 22.27 91.78 117.59"/><polygon class="cls-1" points="118.26 129.33 127.45 134.02 193.19 24.23 189.12 21.95 118.26 129.33"/><rect class="cls-1" x="25.52" y="20.2" width="12.4" height="25.36" transform="translate(-12.87 22.93) rotate(-33.45)"/><rect class="cls-1" x="182.99" y="7.9" width="25.36" height="12.4" transform="translate(88.85 178.64) rotate(-61.13)"/><polygon class="cls-1" points="86.67 450.81 71.33 450.81 76.3 408.52 97.86 408.52 86.67 450.81"/><polygon class="cls-2" points="86.67 450.81 81.28 450.81 88.74 408.52 97.86 408.52 86.67 450.81"/><polygon class="cls-1" points="344.6 450.81 359.94 450.81 354.96 408.52 333.4 408.52 344.6 450.81"/><polygon class="cls-2" points="344.6 450.81 349.99 450.81 342.52 408.52 333.4 408.52 344.6 450.81"/><path class="cls-3" d="M392.28,404.79a12.44,12.44,0,0,1-12.44,12.44H51.42A12.44,12.44,0,0,1,39,404.79h0a12.44,12.44,0,0,1,12.44-12.44H379.84a12.44,12.44,0,0,1,12.44,12.44Z"/><path class="cls-1" d="M406.38,110.78H24.88A24.88,24.88,0,0,0,0,135.66v248a24.88,24.88,0,0,0,24.88,24.88h381.5a24.89,24.89,0,0,0,24.89-24.88v-248A24.89,24.89,0,0,0,406.38,110.78ZM316.81,352.91c0,14.92-11.74,27-26.22,27H49.44c-14.48,0-26.22-12.08-26.22-27v-189c0-14.91,11.74-27,26.22-27H290.59c14.48,0,26.22,12.09,26.22,27Z"/><path class="cls-4" d="M402.83,117.22H28.43A20.78,20.78,0,0,0,7.68,138V381.33a20.78,20.78,0,0,0,20.75,20.75h374.4a20.78,20.78,0,0,0,20.76-20.75V138A20.78,20.78,0,0,0,402.83,117.22Zm-86,235.69c0,14.92-11.74,27-26.22,27H49.44c-14.48,0-26.22-12.08-26.22-27v-189c0-14.91,11.74-27,26.22-27H290.59c14.48,0,26.22,12.09,26.22,27Z"/><path class="cls-3" d="M402.83,121.57H28.43A16.42,16.42,0,0,0,12,138V381.33a16.42,16.42,0,0,0,16.4,16.4h374.4a16.42,16.42,0,0,0,16.4-16.4V138A16.42,16.42,0,0,0,402.83,121.57Zm-86,231.34c0,14.92-11.74,27-26.22,27H49.44c-14.48,0-26.22-12.08-26.22-27v-189c0-14.91,11.74-27,26.22-27H290.59c14.48,0,26.22,12.09,26.22,27Z"/><rect class="cls-1" x="348.32" y="263.27" width="45.2" height="3.93"/><rect class="cls-1" x="348.32" y="270.99" width="45.2" height="3.93"/><rect class="cls-1" x="348.32" y="278.72" width="45.2" height="3.93"/><rect class="cls-1" x="348.32" y="286.45" width="45.2" height="3.93"/><rect class="cls-1" x="348.32" y="294.17" width="45.2" height="3.93"/><rect class="cls-1" x="348.32" y="301.9" width="45.2" height="3.93"/><rect class="cls-1" x="348.32" y="309.63" width="45.2" height="3.93"/><rect class="cls-1" x="348.32" y="317.36" width="45.2" height="3.93"/><rect class="cls-1" x="348.32" y="325.08" width="45.2" height="3.93"/><rect class="cls-1" x="348.32" y="332.81" width="45.2" height="3.93"/><rect class="cls-1" x="348.32" y="340.54" width="45.2" height="3.93"/><rect class="cls-1" x="348.32" y="348.27" width="45.2" height="3.93"/><rect class="cls-1" x="348.32" y="358.33" width="45.2" height="5.9"/><path class="cls-4" d="M393.41,373.89H345.22a7.83,7.83,0,0,1-7.85-7.79V150.74a7.83,7.83,0,0,1,7.85-7.8h48.19a7.83,7.83,0,0,1,7.85,7.8V366.1A7.83,7.83,0,0,1,393.41,373.89ZM345.22,144.2a6.56,6.56,0,0,0-6.58,6.54V366.1a6.56,6.56,0,0,0,6.58,6.53h48.19A6.56,6.56,0,0,0,400,366.1V150.74a6.56,6.56,0,0,0-6.58-6.54Z"/><path class="cls-5" d="M381.2,212.08a23.65,23.65,0,1,1-32.89,6.08A23.66,23.66,0,0,1,381.2,212.08Z"/><path class="cls-6" d="M385.52,208.42a23.65,23.65,0,1,1-32.89,6.09A23.66,23.66,0,0,1,385.52,208.42Z"/><path class="cls-7" d="M383.63,211.17a20.32,20.32,0,1,1-28.25,5.22A20.31,20.31,0,0,1,383.63,211.17Z"/><path class="cls-8" d="M382.12,213.36a17.65,17.65,0,1,1-24.55,4.54A17.66,17.66,0,0,1,382.12,213.36Z"/><path class="cls-9" d="M379.86,216.65a13.66,13.66,0,1,1-19,3.52A13.66,13.66,0,0,1,379.86,216.65Z"/><rect class="cls-1" x="368.02" y="207.67" width="7.49" height="37.98" transform="translate(-25.65 404.54) rotate(-55.48)"/></g></g></svg>