<?xml version="1.0" encoding="utf-8"?>
<!-- Generator: Adobe Illustrator 24.2.1, SVG Export Plug-In . SVG Version: 6.00 Build 0)  -->
<svg version="1.1" id="Layer_1" xmlns="http://www.w3.org/2000/svg" xmlns:xlink="http://www.w3.org/1999/xlink" x="0px" y="0px"
	 viewBox="0 0 431.3 450.8" style="enable-background:new 0 0 431.3 450.8;" xml:space="preserve">
<style type="text/css">
	.st0{fill:#818589;}
	.st1{fill:#BBBBBC;}
	.st2{opacity:0.4;fill:#6D6D6D;enable-background:new    ;}
	.st3{fill:#C2C3C9;}
	.st4{fill:#D8D9DD;}
	.st5{fill:#F7F7F8;}
	.st6{opacity:0.2;fill:#1B1C1C;enable-background:new    ;}
	.st7{fill:#AEADB3;}
	.st8{fill:#9A999E;}
	.st9{opacity:0.7;fill:url(#SVGID_1_);enable-background:new    ;}
	.st10{fill:#EDEEF0;}
</style>
<polygon class="st0" points="91.8,117.6 81.8,123 25.6,24.9 26.8,22.3 "/>
<polygon class="st0" points="118.3,129.3 127.4,134 193.2,24.2 189.1,22 "/>
<rect x="25.5" y="20.2" transform="matrix(0.8344 -0.5512 0.5512 0.8344 -12.8697 22.9302)" class="st0" width="12.4" height="25.4"/>
<rect x="183" y="7.9" transform="matrix(0.4828 -0.8757 0.8757 0.4828 88.8525 178.6434)" class="st0" width="25.4" height="12.4"/>
<polygon class="st1" points="86.7,450.8 71.3,450.8 76.3,408.5 97.9,408.5 "/>
<polygon class="st2" points="86.7,450.8 81.3,450.8 88.7,408.5 97.9,408.5 "/>
<polygon class="st1" points="344.6,450.8 359.9,450.8 355,408.5 333.4,408.5 "/>
<polygon class="st2" points="344.6,450.8 350,450.8 342.5,408.5 333.4,408.5 "/>
<path class="st1" d="M392.3,404.8c0,6.9-5.6,12.4-12.4,12.4l0,0H51.4c-6.9,0-12.4-5.6-12.4-12.4l0,0c0-6.9,5.6-12.4,12.4-12.4
	c0,0,0,0,0,0h328.4C386.7,392.4,392.3,397.9,392.3,404.8L392.3,404.8z"/>
<path class="st0" d="M406.4,110.8H24.9C11.1,110.8,0,121.9,0,135.7c0,0,0,0,0,0v248c0,13.7,11.1,24.9,24.9,24.9c0,0,0,0,0,0h381.5
	c13.7,0,24.9-11.1,24.9-24.9v-248C431.3,121.9,420.1,110.8,406.4,110.8z M316.8,352.9c0,14.9-11.7,27-26.2,27H49.4
	c-14.5,0-26.2-12.1-26.2-27v-189c0-14.9,11.7-27,26.2-27h241.1c14.5,0,26.2,12.1,26.2,27V352.9z"/>
<path class="st3" d="M402.8,117.2H28.4c-11.5,0-20.8,9.3-20.8,20.8v243.3c0,11.5,9.3,20.7,20.8,20.8h374.4
	c11.5,0,20.7-9.3,20.8-20.8V138C423.6,126.5,414.3,117.2,402.8,117.2z M316.8,352.9c0,14.9-11.7,27-26.2,27H49.4
	c-14.5,0-26.2-12.1-26.2-27v-189c0-14.9,11.7-27,26.2-27h241.1c14.5,0,26.2,12.1,26.2,27L316.8,352.9z"/>
<path class="st4" d="M402.8,121.6H28.4c-9.1,0-16.4,7.3-16.4,16.4c0,0,0,0,0,0v243.3c0,9.1,7.3,16.4,16.4,16.4h374.4
	c9.1,0,16.4-7.3,16.4-16.4V138C419.2,128.9,411.9,121.6,402.8,121.6z M316.8,352.9c0,14.9-11.7,27-26.2,27H49.4
	c-14.5,0-26.2-12.1-26.2-27v-189c0-14.9,11.7-27,26.2-27h241.1c14.5,0,26.2,12.1,26.2,27L316.8,352.9z"/>
<rect x="348.3" y="263.3" class="st5" width="45.2" height="3.9"/>
<rect x="348.3" y="271" class="st5" width="45.2" height="3.9"/>
<rect x="348.3" y="278.7" class="st5" width="45.2" height="3.9"/>
<rect x="348.3" y="286.5" class="st5" width="45.2" height="3.9"/>
<rect x="348.3" y="294.2" class="st5" width="45.2" height="3.9"/>
<rect x="348.3" y="301.9" class="st5" width="45.2" height="3.9"/>
<rect x="348.3" y="309.6" class="st5" width="45.2" height="3.9"/>
<rect x="348.3" y="317.4" class="st5" width="45.2" height="3.9"/>
<rect x="348.3" y="325.1" class="st5" width="45.2" height="3.9"/>
<rect x="348.3" y="332.8" class="st5" width="45.2" height="3.9"/>
<rect x="348.3" y="340.5" class="st5" width="45.2" height="3.9"/>
<rect x="348.3" y="348.3" class="st5" width="45.2" height="3.9"/>
<rect x="348.3" y="358.3" class="st5" width="45.2" height="5.9"/>
<path class="st3" d="M393.4,373.9h-48.2c-4.3,0-7.8-3.5-7.9-7.8V150.7c0-4.3,3.5-7.8,7.9-7.8h48.2c4.3,0,7.8,3.5,7.9,7.8v215.4
	C401.2,370.4,397.7,373.9,393.4,373.9z M345.2,144.2c-3.6,0-6.6,2.9-6.6,6.5c0,0,0,0,0,0v215.4c0,3.6,3,6.5,6.6,6.5h48.2
	c3.6,0,6.6-2.9,6.6-6.5c0,0,0,0,0,0V150.7c0-3.6-3-6.6-6.6-6.5h0L345.2,144.2z"/>
<path class="st6" d="M381.2,212.1c10.8,7.4,13.5,22.1,6.1,32.9c-7.4,10.8-22.1,13.5-32.9,6.1c-10.8-7.4-13.5-22.1-6.1-32.9
	C355.7,207.4,370.4,204.7,381.2,212.1z"/>
<path class="st7" d="M385.5,208.4c10.8,7.4,13.5,22.1,6.1,32.9c-7.4,10.8-22.1,13.5-32.9,6.1c-10.8-7.4-13.5-22.1-6.1-32.9
	C360,203.7,374.8,201,385.5,208.4z"/>
<path class="st8" d="M383.6,211.2c9.2,6.4,11.6,19,5.2,28.3c-6.4,9.2-19,11.6-28.3,5.2c-9.2-6.4-11.6-19-5.2-28.3c0,0,0,0,0,0
	C361.7,207.1,374.4,204.8,383.6,211.2C383.6,211.2,383.6,211.2,383.6,211.2z"/>
<linearGradient id="SVGID_1_" gradientUnits="userSpaceOnUse" x1="-159.0408" y1="7.8993" x2="-115.7408" y2="-44.0607" gradientTransform="matrix(0.5666 -0.824 -0.824 -0.5666 436.2245 104.3358)">
	<stop  offset="0" style="stop-color:#D5D5D5"/>
	<stop  offset="1" style="stop-color:#949494"/>
</linearGradient>
<path class="st9" d="M382.1,213.4c8,5.5,10.1,16.5,4.5,24.5c-5.5,8-16.5,10.1-24.5,4.5c-8-5.5-10.1-16.5-4.5-24.5
	C363.1,209.9,374.1,207.8,382.1,213.4z"/>
<path class="st10" d="M379.9,216.6c6.2,4.3,7.8,12.8,3.5,19c-4.3,6.2-12.8,7.8-19,3.5c-6.2-4.3-7.8-12.8-3.5-19
	C365.1,214,373.6,212.4,379.9,216.6C379.9,216.6,379.9,216.6,379.9,216.6z"/>
<rect x="368" y="207.7" transform="matrix(0.5667 -0.8239 0.8239 0.5667 -25.6734 404.5404)" class="st5" width="7.5" height="38"/>
</svg>
